<svg width="100%" viewBox="0 0 680 710" role="img" xmlns="http://www.w3.org/2000/svg" font-family="Arial, Helvetica, sans-serif">
  <title>Diagramme de cas d'utilisation — r3st0.fr</title>
  <desc>11 cas d'utilisation couverts dans les 5 TP, répartis entre Visiteur et Utilisateur authentifié.</desc>

  <!-- Frontière système -->
  <rect x="155" y="28" width="400" height="660" rx="6" fill="none" stroke="#888780" stroke-width="1" stroke-dasharray="6 3"/>
  <text x="355" y="47" text-anchor="middle" font-size="11" fill="#5F5E5A" font-style="italic">«système»</text>
  <text x="355" y="64" text-anchor="middle" font-size="14" font-weight="700" fill="#2C2C2A">r3st0.fr</text>

  <!-- Séparateur Visiteur / Authentifié -->
  <line x1="175" y1="365" x2="535" y2="365" stroke="#C9C7BE" stroke-width="0.8" stroke-dasharray="4 3"/>

  <!-- CAS D'UTILISATION — Visiteur (teal) -->
  <ellipse cx="360" cy="96" rx="90" ry="20" fill="#E1F5EE" stroke="#0F6E56" stroke-width="0.8"/>
  <text x="360" y="96" text-anchor="middle" dominant-baseline="central" font-size="12" fill="#085041">Lister les restaurants</text>

  <ellipse cx="360" cy="154" rx="112" ry="20" fill="#E1F5EE" stroke="#0F6E56" stroke-width="0.8"/>
  <text x="360" y="154" text-anchor="middle" dominant-baseline="central" font-size="12" fill="#085041">Consulter fiche restaurant</text>

  <ellipse cx="360" cy="212" rx="105" ry="20" fill="#E1F5EE" stroke="#0F6E56" stroke-width="0.8"/>
  <text x="360" y="212" text-anchor="middle" dominant-baseline="central" font-size="12" fill="#085041">Rechercher un restaurant</text>

  <ellipse cx="360" cy="270" rx="80" ry="20" fill="#E1F5EE" stroke="#0F6E56" stroke-width="0.8"/>
  <text x="360" y="270" text-anchor="middle" dominant-baseline="central" font-size="12" fill="#085041">Consulter les CGU</text>

  <ellipse cx="360" cy="328" rx="55" ry="20" fill="#E1F5EE" stroke="#0F6E56" stroke-width="0.8"/>
  <text x="360" y="328" text-anchor="middle" dominant-baseline="central" font-size="12" fill="#085041">S'inscrire</text>

  <!-- Étiquettes TP (référence) -->
  <text x="530" y="100" font-size="10" fill="#B4B2A9">TP1</text>
  <text x="530" y="158" font-size="10" fill="#B4B2A9">TP1</text>
  <text x="530" y="216" font-size="10" fill="#B4B2A9">TP2</text>
  <text x="530" y="274" font-size="10" fill="#B4B2A9">TP5</text>
  <text x="530" y="332" font-size="10" fill="#B4B2A9">TP5</text>

  <!-- CAS D'UTILISATION — Utilisateur authentifié (purple) -->
  <ellipse cx="360" cy="400" rx="65" ry="20" fill="#EEEDFE" stroke="#534AB7" stroke-width="0.8"/>
  <text x="360" y="400" text-anchor="middle" dominant-baseline="central" font-size="12" fill="#3C3489">Se connecter</text>

  <ellipse cx="360" cy="453" rx="72" ry="20" fill="#EEEDFE" stroke="#534AB7" stroke-width="0.8"/>
  <text x="360" y="453" text-anchor="middle" dominant-baseline="central" font-size="12" fill="#3C3489">Se déconnecter</text>

  <ellipse cx="360" cy="506" rx="90" ry="20" fill="#EEEDFE" stroke="#534AB7" stroke-width="0.8"/>
  <text x="360" y="506" text-anchor="middle" dominant-baseline="central" font-size="12" fill="#3C3489">Consulter son profil</text>

  <ellipse cx="360" cy="559" rx="90" ry="20" fill="#EEEDFE" stroke="#534AB7" stroke-width="0.8"/>
  <text x="360" y="559" text-anchor="middle" dominant-baseline="central" font-size="12" fill="#3C3489">Aimer un restaurant</text>

  <ellipse cx="360" cy="612" rx="82" ry="20" fill="#EEEDFE" stroke="#534AB7" stroke-width="0.8"/>
  <text x="360" y="612" text-anchor="middle" dominant-baseline="central" font-size="12" fill="#3C3489">Ne plus aimer</text>

  <ellipse cx="360" cy="665" rx="100" ry="20" fill="#EEEDFE" stroke="#534AB7" stroke-width="0.8"/>
  <text x="360" y="665" text-anchor="middle" dominant-baseline="central" font-size="12" fill="#3C3489">Consulter les critiques</text>

  <text x="530" y="404" font-size="10" fill="#B4B2A9">TP2</text>
  <text x="530" y="457" font-size="10" fill="#B4B2A9">TP2</text>
  <text x="530" y="510" font-size="10" fill="#B4B2A9">TP3</text>
  <text x="530" y="563" font-size="10" fill="#B4B2A9">TP4/5</text>
  <text x="530" y="616" font-size="10" fill="#B4B2A9">TP4</text>
  <text x="530" y="669" font-size="10" fill="#B4B2A9">TP4</text>

  <!-- ACTEUR : Visiteur -->
  <circle cx="75" cy="90" r="13" fill="none" stroke="#2C2C2A" stroke-width="1.5"/>
  <line x1="75" y1="103" x2="75" y2="133" stroke="#2C2C2A" stroke-width="1.5"/>
  <line x1="57" y1="117" x2="93" y2="117" stroke="#2C2C2A" stroke-width="1.5"/>
  <line x1="75" y1="133" x2="60" y2="155" stroke="#2C2C2A" stroke-width="1.5"/>
  <line x1="75" y1="133" x2="90" y2="155" stroke="#2C2C2A" stroke-width="1.5"/>
  <text x="75" y="172" text-anchor="middle" font-size="12" font-weight="600" fill="#2C2C2A">Visiteur</text>

  <!-- ACTEUR : Utilisateur authentifié -->
  <circle cx="75" cy="532" r="13" fill="none" stroke="#2C2C2A" stroke-width="1.5"/>
  <line x1="75" y1="545" x2="75" y2="575" stroke="#2C2C2A" stroke-width="1.5"/>
  <line x1="57" y1="559" x2="93" y2="559" stroke="#2C2C2A" stroke-width="1.5"/>
  <line x1="75" y1="575" x2="60" y2="597" stroke="#2C2C2A" stroke-width="1.5"/>
  <line x1="75" y1="575" x2="90" y2="597" stroke="#2C2C2A" stroke-width="1.5"/>
  <text x="75" y="614" text-anchor="middle" font-size="11" font-weight="600" fill="#2C2C2A">Utilisateur</text>
  <text x="75" y="629" text-anchor="middle" font-size="11" font-weight="600" fill="#2C2C2A">authentifié</text>

  <!-- GÉNÉRALISATION : flèche enfant → parent (triangle ouvert vers Visiteur) -->
  <line x1="75" y1="519" x2="75" y2="185" stroke="#2C2C2A" stroke-width="1.2"/>
  <path d="M 68,185 L 75,173 L 82,185 Z" fill="none" stroke="#2C2C2A" stroke-width="1.2"/>
  <text x="90" y="362" font-size="10" fill="#5F5E5A" font-style="italic">hérite de</text>

  <!-- CONNEXIONS Visiteur → cas d'utilisation -->
  <line x1="88" y1="95" x2="270" y2="95" stroke="#888780" stroke-width="0.8"/>
  <line x1="88" y1="103" x2="248" y2="152" stroke="#888780" stroke-width="0.8"/>
  <line x1="88" y1="112" x2="255" y2="210" stroke="#888780" stroke-width="0.8"/>
  <line x1="88" y1="120" x2="280" y2="268" stroke="#888780" stroke-width="0.8"/>
  <line x1="88" y1="128" x2="305" y2="326" stroke="#888780" stroke-width="0.8"/>

  <!-- CONNEXIONS Utilisateur authentifié → cas d'utilisation -->
  <line x1="88" y1="520" x2="295" y2="402" stroke="#888780" stroke-width="0.8"/>
  <line x1="88" y1="530" x2="288" y2="453" stroke="#888780" stroke-width="0.8"/>
  <line x1="88" y1="540" x2="270" y2="506" stroke="#888780" stroke-width="0.8"/>
  <line x1="88" y1="549" x2="270" y2="557" stroke="#888780" stroke-width="0.8"/>
  <line x1="88" y1="558" x2="278" y2="610" stroke="#888780" stroke-width="0.8"/>
  <line x1="88" y1="566" x2="260" y2="663" stroke="#888780" stroke-width="0.8"/>

  <!-- LÉGENDE -->
  <ellipse cx="180" cy="696" rx="12" ry="8" fill="#E1F5EE" stroke="#0F6E56" stroke-width="0.8"/>
  <text x="196" y="700" font-size="11" fill="#2C2C2A">Visiteur</text>
  <ellipse cx="282" cy="696" rx="12" ry="8" fill="#EEEDFE" stroke="#534AB7" stroke-width="0.8"/>
  <text x="298" y="700" font-size="11" fill="#2C2C2A">Utilisateur authentifié</text>
</svg>
